<svg width="68" height="67" viewBox="0 0 68 67" fill="none" xmlns="http://www.w3.org/2000/svg">
<g id="Group 5">
<path id="Vector" d="M67.1598 33.5C67.1598 15.4888 52.282 0.840234 34 0.840236C15.7177 0.840237 0.840244 15.4891 0.840245 33.5C0.840247 51.5112 15.7177 66.1598 34 66.1598C52.2823 66.1598 67.1598 51.5109 67.1598 33.5ZM64.1997 33.5C64.1997 49.8958 50.6542 63.2397 34 63.2397C17.346 63.2397 3.80034 49.896 3.80034 33.5C3.80034 17.1042 17.346 3.76033 34 3.76033C50.654 3.76032 64.1997 17.104 64.1997 33.5Z" fill="white" stroke="#F9FFF9" stroke-width="0.319523"/>
<g id="arrow">
<path id="Vector_2" d="M34.6583 20.4474C34.6583 19.8376 34.1521 19.35 33.5367 19.35C32.9213 19.35 32.4151 19.8369 32.4151 20.4474L32.4151 44.8277C32.4151 45.4375 32.9212 45.9252 33.5367 45.9252C34.1522 45.9252 34.6583 45.4375 34.6583 44.8277L34.6583 20.4474Z" fill="white" stroke="#483EA8" stroke-width="0.319523"/>
<path id="Vector_3" d="M26.6338 36.5465C26.4148 36.333 26.1275 36.2266 25.8422 36.2265L34.3287 45.6029L42.0233 38.1015C42.4634 37.6724 42.4634 36.9756 42.0233 36.5465C41.5855 36.1198 40.8772 36.1196 40.4399 36.5465C40.4399 36.5466 40.4398 36.5466 40.4398 36.5466L33.5368 43.2763L26.6338 36.5465ZM25.8421 36.2265C25.5571 36.2266 25.2695 36.3322 25.0503 36.5467L25.8421 36.2265Z" fill="white" stroke="#483EA8" stroke-width="0.319523"/>
</g>
</g>
</svg>
