<svg width="176" height="150" viewBox="0 0 176 150" fill="none" xmlns="http://www.w3.org/2000/svg">
<g id="Upload icon">
<path id="Vector" d="M92.3015 36.0805L92.3948 36.1064L92.3967 36.1044C93.4419 36.3447 94.522 35.7809 94.8353 34.7963C97.8721 25.3017 107.443 18.6596 118.119 18.6596C119.235 18.6596 120.16 17.815 120.16 16.7499C120.16 15.6848 119.235 14.8402 118.119 14.8402C105.24 14.8402 94.407 22.8196 90.9268 33.7016C90.5992 34.7234 91.2284 35.7826 92.3015 36.0805Z" fill="white" stroke="#F9FFF9" stroke-width="0.319523"/>
<path id="Vector_2" d="M144.171 105.999H132.937C131.903 105.999 131.065 105.18 131.065 104.171C131.065 103.162 131.903 102.343 132.937 102.343H144.171C159.656 102.343 172.256 90.0444 172.256 74.9286C172.256 59.8128 159.656 47.5139 144.171 47.5139H143.901C143.358 47.5139 142.842 47.2842 142.486 46.8834C142.13 46.4826 141.97 45.9513 142.047 45.4265C142.214 44.2881 142.299 43.1445 142.299 42.031C142.299 28.9308 131.379 18.2715 117.958 18.2715C112.737 18.2715 107.758 19.8641 103.558 22.8784C102.636 23.5403 101.325 23.2466 100.791 22.2557C88.8981 0.149111 57.8342 -2.81958 41.7291 16.4112C34.9447 24.5129 32.279 35.0518 34.415 45.3234C34.6504 46.4579 33.761 47.5153 32.5801 47.5153H31.8298C16.3444 47.5153 3.74485 59.8142 3.74485 74.93C3.74485 90.0458 16.3444 102.345 31.8298 102.345H43.0637C44.0975 102.345 44.9361 103.163 44.9361 104.172C44.9361 105.181 44.0975 106 43.0637 106H31.8298C14.2792 106 0 92.0616 0 74.9299C0 58.2787 13.4887 44.6444 30.36 43.8925C28.7752 33.2359 31.8058 22.4867 38.8296 14.098C56.0724 -6.49303 89.117 -4.18505 103.086 18.7754C107.542 16.0483 112.641 14.6177 117.958 14.6177C134.217 14.6177 147.102 28.1266 145.974 43.9095C162.69 44.8247 176 58.387 176 74.9285C176 92.0616 161.721 105.999 144.17 105.999L144.171 105.999Z" fill="white"/>
<path id="Vector_3" d="M40.8402 103C40.8402 128.456 61.9994 149.16 88 149.16C114.001 149.16 135.16 128.456 135.16 103C135.16 77.5439 114.001 56.8402 88 56.8402C61.999 56.8402 40.8402 77.5443 40.8402 103ZM44.9206 103C44.9206 79.757 64.2429 60.8406 88 60.8406C111.757 60.8406 131.079 79.7567 131.079 103C131.079 126.243 111.757 145.159 88 145.159C64.2433 145.159 44.9206 126.243 44.9206 103Z" fill="white" stroke="#F9FFF9" stroke-width="0.319523"/>
<g id="arrow">
<path id="Vector_4" d="M87.13 121.302C87.13 122.132 87.819 122.797 88.6597 122.797C89.5004 122.797 90.1894 122.133 90.1894 121.302V86.5787C90.1894 85.7492 89.5005 85.0834 88.6597 85.0834C87.8189 85.0834 87.13 85.7493 87.13 86.5787V121.302Z" fill="white" stroke="#483EA8" stroke-width="0.319523"/>
<path id="Vector_5" d="M98.5385 98.3246C98.837 98.6157 99.229 98.7611 99.6186 98.7611L78.7807 98.3245L88.6595 88.6937L98.5385 98.3246ZM76.6201 98.3246C77.2173 98.9068 78.1842 98.907 78.7806 98.3246L99.6187 98.7611C100.008 98.7611 100.4 98.6168 100.699 98.3245C101.298 97.74 101.298 96.7915 100.699 96.207L89.7397 85.5231C89.1425 84.9408 88.1755 84.9407 87.5791 85.5232L76.6201 96.207C76.0206 96.7915 76.0206 97.7401 76.6201 98.3246Z" fill="white" stroke="#483EA8" stroke-width="0.319523"/>
</g>
</g>
</svg>
