<svg width="176" height="150" viewBox="0 0 176 150" fill="none" xmlns="http://www.w3.org/2000/svg">
<mask id="path-1-outside-1_4_1499" maskUnits="userSpaceOnUse" x="90" y="14" width="31" height="23" fill="black">
<rect fill="white" x="90" y="14" width="31" height="23"/>
<path d="M92.3443 35.9265C91.3489 35.6503 90.782 34.6766 91.0789 33.7504C94.5366 22.9385 105.306 15 118.119 15C119.158 15 120 15.7837 120 16.7499C120 17.7161 119.158 18.4999 118.119 18.4999C107.38 18.4999 97.743 25.1808 94.6831 34.7477C94.3889 35.6726 93.3439 36.2038 92.3444 35.9263L92.3443 35.9265Z"/>
</mask>
<path d="M92.3443 35.9265C91.3489 35.6503 90.782 34.6766 91.0789 33.7504C94.5366 22.9385 105.306 15 118.119 15C119.158 15 120 15.7837 120 16.7499C120 17.7161 119.158 18.4999 118.119 18.4999C107.38 18.4999 97.743 25.1808 94.6831 34.7477C94.3889 35.6726 93.3439 36.2038 92.3444 35.9263L92.3443 35.9265Z" fill="white"/>
<path d="M92.3443 35.9265C91.3489 35.6503 90.782 34.6766 91.0789 33.7504C94.5366 22.9385 105.306 15 118.119 15C119.158 15 120 15.7837 120 16.7499C120 17.7161 119.158 18.4999 118.119 18.4999C107.38 18.4999 97.743 25.1808 94.6831 34.7477C94.3889 35.6726 93.3439 36.2038 92.3444 35.9263L92.3443 35.9265Z" stroke="#F9FFF9" stroke-width="0.639046" mask="url(#path-1-outside-1_4_1499)"/>
<path d="M144.171 105.999H132.937C131.903 105.999 131.065 105.18 131.065 104.171C131.065 103.162 131.903 102.343 132.937 102.343H144.171C159.656 102.343 172.256 90.0444 172.256 74.9286C172.256 59.8128 159.656 47.5139 144.171 47.5139H143.901C143.358 47.5139 142.842 47.2842 142.486 46.8834C142.13 46.4826 141.97 45.9513 142.047 45.4265C142.214 44.2881 142.299 43.1445 142.299 42.031C142.299 28.9308 131.379 18.2715 117.958 18.2715C112.737 18.2715 107.758 19.8641 103.558 22.8784C102.636 23.5403 101.325 23.2466 100.791 22.2557C88.8981 0.149111 57.8342 -2.81958 41.7291 16.4112C34.9447 24.5129 32.279 35.0518 34.415 45.3234C34.6504 46.4579 33.761 47.5153 32.5801 47.5153H31.8298C16.3444 47.5153 3.74485 59.8142 3.74485 74.93C3.74485 90.0458 16.3444 102.345 31.8298 102.345H43.0637C44.0975 102.345 44.9361 103.163 44.9361 104.172C44.9361 105.181 44.0975 106 43.0637 106H31.8298C14.2792 106 0 92.0616 0 74.9299C0 58.2787 13.4887 44.6444 30.36 43.8925C28.7752 33.2359 31.8058 22.4867 38.8296 14.098C56.0724 -6.49303 89.117 -4.18505 103.086 18.7754C107.542 16.0483 112.641 14.6177 117.958 14.6177C134.217 14.6177 147.102 28.1266 145.974 43.9095C162.69 44.8247 176 58.387 176 74.9285C176 92.0616 161.721 105.999 144.17 105.999L144.171 105.999Z" fill="white"/>
<mask id="path-3-outside-2_4_1499" maskUnits="userSpaceOnUse" x="40" y="56" width="96" height="94" fill="black">
<rect fill="white" x="40" y="56" width="96" height="94"/>
<path d="M88 149C62.0843 149 41 128.365 41 103C41 77.6357 62.084 57 88 57C113.916 57 135 77.6354 135 103C135 128.364 113.916 149 88 149ZM88 60.6808C64.1579 60.6808 44.7608 79.6656 44.7608 103C44.7608 126.335 64.1583 145.319 88 145.319C111.842 145.319 131.239 126.334 131.239 103C131.239 79.6652 111.842 60.6808 88 60.6808Z"/>
</mask>
<path d="M88 149C62.0843 149 41 128.365 41 103C41 77.6357 62.084 57 88 57C113.916 57 135 77.6354 135 103C135 128.364 113.916 149 88 149ZM88 60.6808C64.1579 60.6808 44.7608 79.6656 44.7608 103C44.7608 126.335 64.1583 145.319 88 145.319C111.842 145.319 131.239 126.334 131.239 103C131.239 79.6652 111.842 60.6808 88 60.6808Z" fill="white"/>
<path d="M88 149C62.0843 149 41 128.365 41 103C41 77.6357 62.084 57 88 57C113.916 57 135 77.6354 135 103C135 128.364 113.916 149 88 149ZM88 60.6808C64.1579 60.6808 44.7608 79.6656 44.7608 103C44.7608 126.335 64.1583 145.319 88 145.319C111.842 145.319 131.239 126.334 131.239 103C131.239 79.6652 111.842 60.6808 88 60.6808Z" stroke="#F9FFF9" stroke-width="0.639046" mask="url(#path-3-outside-2_4_1499)"/>
<mask id="path-4-outside-3_4_1499" maskUnits="userSpaceOnUse" x="86.2898" y="84.2432" width="5" height="39" fill="black">
<rect fill="white" x="86.2898" y="84.2432" width="5" height="39"/>
<path d="M88.6597 122.638C87.9033 122.638 87.2898 122.04 87.2898 121.302V86.5787C87.2898 85.8413 87.9033 85.2432 88.6597 85.2432C89.4161 85.2432 90.0296 85.8413 90.0296 86.5787V121.302C90.0296 122.041 89.4161 122.638 88.6597 122.638Z"/>
</mask>
<path d="M88.6597 122.638C87.9033 122.638 87.2898 122.04 87.2898 121.302V86.5787C87.2898 85.8413 87.9033 85.2432 88.6597 85.2432C89.4161 85.2432 90.0296 85.8413 90.0296 86.5787V121.302C90.0296 122.041 89.4161 122.638 88.6597 122.638Z" fill="white"/>
<path d="M88.6597 122.638C87.9033 122.638 87.2898 122.04 87.2898 121.302V86.5787C87.2898 85.8413 87.9033 85.2432 88.6597 85.2432C89.4161 85.2432 90.0296 85.8413 90.0296 86.5787V121.302C90.0296 122.041 89.4161 122.638 88.6597 122.638Z" stroke="#483EA8" stroke-width="0.639046" mask="url(#path-4-outside-3_4_1499)"/>
<mask id="path-5-outside-4_4_1499" maskUnits="userSpaceOnUse" x="75.3302" y="84.2461" width="26" height="15" fill="black">
<rect fill="white" x="75.3302" y="84.2461" width="26" height="15"/>
<path d="M99.6187 98.6013C99.2684 98.6013 98.9171 98.4706 98.65 98.2102L88.6595 88.4706L78.6691 98.2102C78.1348 98.732 77.2669 98.732 76.7316 98.2102C76.1964 97.6884 76.1964 96.8432 76.7316 96.3214L87.6908 85.6375C88.225 85.1157 89.093 85.1157 89.6282 85.6375L100.587 96.3214C101.123 96.8432 101.123 97.6884 100.587 98.2102C100.32 98.4716 99.9689 98.6013 99.6186 98.6013H99.6187Z"/>
</mask>
<path d="M99.6187 98.6013C99.2684 98.6013 98.9171 98.4706 98.65 98.2102L88.6595 88.4706L78.6691 98.2102C78.1348 98.732 77.2669 98.732 76.7316 98.2102C76.1964 97.6884 76.1964 96.8432 76.7316 96.3214L87.6908 85.6375C88.225 85.1157 89.093 85.1157 89.6282 85.6375L100.587 96.3214C101.123 96.8432 101.123 97.6884 100.587 98.2102C100.32 98.4716 99.9689 98.6013 99.6186 98.6013H99.6187Z" fill="white"/>
<path d="M99.6187 98.6013C99.2684 98.6013 98.9171 98.4706 98.65 98.2102L88.6595 88.4706L78.6691 98.2102C78.1348 98.732 77.2669 98.732 76.7316 98.2102C76.1964 97.6884 76.1964 96.8432 76.7316 96.3214L87.6908 85.6375C88.225 85.1157 89.093 85.1157 89.6282 85.6375L100.587 96.3214C101.123 96.8432 101.123 97.6884 100.587 98.2102C100.32 98.4716 99.9689 98.6013 99.6186 98.6013H99.6187Z" stroke="#483EA8" stroke-width="0.639046" mask="url(#path-5-outside-4_4_1499)"/>
</svg>
